<mxfile host="65bd71144e">
    <diagram id="KNwG4QR3mqaRUpoF-0TL" name="Page-1">
        <mxGraphModel dx="1176" dy="359" grid="1" gridSize="10" guides="1" tooltips="1" connect="1" arrows="1" fold="1" page="1" pageScale="1" pageWidth="850" pageHeight="1100" math="0" shadow="0">
            <root>
                <mxCell id="0"/>
                <mxCell id="1" parent="0"/>
                <mxCell id="2" value="" style="rounded=0;whiteSpace=wrap;html=1;fillColor=#FFFF66;fontColor=#FFFF33;strokeColor=#FFFF33;" parent="1" vertex="1">
                    <mxGeometry x="10" y="40" width="390" height="490" as="geometry"/>
                </mxCell>
                <mxCell id="3" value="&lt;span style=&quot;color: rgb(0 , 0 , 0)&quot;&gt;今日待办: (速看的功能)&lt;br&gt;待办锁定，接受下拉&lt;br&gt;&lt;/span&gt;" style="rounded=0;whiteSpace=wrap;html=1;fillColor=#FFFFFF;" parent="1" vertex="1">
                    <mxGeometry x="120" y="50" width="110" height="70" as="geometry"/>
                </mxCell>
                <mxCell id="4" value="Project 项" style="rounded=0;whiteSpace=wrap;html=1;fillColor=#FFFFFF;fontColor=#000000;" parent="1" vertex="1">
                    <mxGeometry x="20" y="50" width="60" height="400" as="geometry"/>
                </mxCell>
                <mxCell id="5" value="" style="rounded=0;whiteSpace=wrap;html=1;fillColor=#FFFFFF;" parent="1" vertex="1">
                    <mxGeometry x="90" y="130" width="290" height="320" as="geometry"/>
                </mxCell>
                <mxCell id="21" value="" style="edgeStyle=none;html=1;fontColor=#000000;" edge="1" parent="1" source="6" target="7">
                    <mxGeometry relative="1" as="geometry"/>
                </mxCell>
                <mxCell id="6" value="&lt;font color=&quot;#000000&quot;&gt;排序: selector&lt;/font&gt;" style="rounded=0;whiteSpace=wrap;html=1;fillColor=#FFFFFF;" parent="1" vertex="1">
                    <mxGeometry x="20" y="460" width="60" height="50" as="geometry"/>
                </mxCell>
                <mxCell id="7" value="&lt;font color=&quot;#000000&quot;&gt;显示|清除|新建|修改|上传|下载&lt;/font&gt;" style="rounded=0;whiteSpace=wrap;html=1;fillColor=#FFFFFF;" parent="1" vertex="1">
                    <mxGeometry x="90" y="460" width="290" height="50" as="geometry"/>
                </mxCell>
                <mxCell id="11" value="最近完成:&lt;br&gt;最近五条" style="rounded=0;whiteSpace=wrap;html=1;fillColor=#FFFFFF;fontColor=#000000;" parent="1" vertex="1">
                    <mxGeometry x="270" y="50" width="110" height="70" as="geometry"/>
                </mxCell>
                <mxCell id="13" value="页面栏" style="rounded=0;whiteSpace=wrap;html=1;fontColor=#000000;fillColor=#FFFFFF;labelBorderColor=#FF3333;labelBackgroundColor=none;strokeColor=#FF0000;strokeWidth=4;" parent="1" vertex="1">
                    <mxGeometry x="280" y="420" width="100" height="20" as="geometry"/>
                </mxCell>
                <mxCell id="14" value="Project1: 可折叠 可隐藏 最大四级Level&amp;nbsp;&lt;br&gt;&lt;span style=&quot;white-space: pre&quot;&gt;&#9;&lt;/span&gt;Level1&amp;nbsp;&lt;br&gt;&lt;span style=&quot;white-space: pre&quot;&gt;&#9;&lt;/span&gt;&lt;span style=&quot;white-space: pre&quot;&gt;&#9;&lt;/span&gt;Level2&amp;nbsp;&lt;br&gt;&lt;span style=&quot;white-space: pre&quot;&gt;&#9;&lt;/span&gt;&lt;span style=&quot;white-space: pre&quot;&gt;&#9;&lt;/span&gt;&lt;span style=&quot;white-space: pre&quot;&gt;&#9;&lt;/span&gt;Level3&amp;nbsp;&amp;nbsp;&lt;br&gt;Project2:&amp;nbsp;&lt;br&gt;&lt;span style=&quot;white-space: pre&quot;&gt;&#9;&lt;/span&gt;Level1&amp;nbsp;&lt;br&gt;&lt;span style=&quot;white-space: pre&quot;&gt;&#9;&lt;/span&gt;&lt;span style=&quot;white-space: pre&quot;&gt;&#9;&lt;/span&gt;Level2&amp;nbsp;&amp;nbsp;&lt;br&gt;&lt;span style=&quot;white-space: pre&quot;&gt;&#9;&lt;/span&gt;&lt;span style=&quot;white-space: pre&quot;&gt;&#9;&lt;/span&gt;&lt;span style=&quot;white-space: pre&quot;&gt;&#9;&lt;/span&gt;Level3&amp;nbsp;" style="rounded=0;whiteSpace=wrap;html=1;labelBackgroundColor=none;labelBorderColor=#FF3333;fontColor=#000000;strokeColor=#FF0000;strokeWidth=4;fillColor=#FFFFFF;align=left;verticalAlign=top;" parent="1" vertex="1">
                    <mxGeometry x="100" y="140" width="200" height="140" as="geometry"/>
                </mxCell>
                <mxCell id="15" value="整个版面可以下拉" style="rounded=0;whiteSpace=wrap;html=1;labelBackgroundColor=none;labelBorderColor=#FF3333;fontColor=#000000;strokeColor=#FF0000;strokeWidth=4;fillColor=#FFFFFF;" parent="1" vertex="1">
                    <mxGeometry x="100" y="290" width="120" height="60" as="geometry"/>
                </mxCell>
                <mxCell id="16" value="Project项:&amp;nbsp;&lt;br&gt;显示所有的Project项，&lt;br&gt;双击之后，出现在显示栏" style="rounded=0;whiteSpace=wrap;html=1;fillColor=#FFFFFF;fontColor=#000000;" vertex="1" parent="1">
                    <mxGeometry x="430" y="110" width="150" height="60" as="geometry"/>
                </mxCell>
                <mxCell id="17" value="排序:存在ddl、重要性两个标准，如果没有ddl 默认重要性排序，默认只显示未完成" style="rounded=0;whiteSpace=wrap;html=1;fillColor=#FFFFFF;fontColor=#000000;" vertex="1" parent="1">
                    <mxGeometry x="430" y="180" width="150" height="60" as="geometry"/>
                </mxCell>
                <mxCell id="18" value="今日待办: 每个任务后有一个勾选框，完成后以划线的方式显示。前插入到最近完成" style="rounded=0;whiteSpace=wrap;html=1;fillColor=#FFFFFF;fontColor=#000000;" vertex="1" parent="1">
                    <mxGeometry x="430" y="250" width="150" height="60" as="geometry"/>
                </mxCell>
                <mxCell id="19" value="最近完成:&amp;nbsp; 显示最近3天完成的任务，可以进行回撤" style="rounded=0;whiteSpace=wrap;html=1;fillColor=#FFFFFF;fontColor=#000000;" vertex="1" parent="1">
                    <mxGeometry x="430" y="320" width="150" height="60" as="geometry"/>
                </mxCell>
                <mxCell id="20" value="暂不排序" style="rounded=0;whiteSpace=wrap;html=1;fillColor=#FFFFFF;fontColor=#000000;" vertex="1" parent="1">
                    <mxGeometry x="750" y="110" width="150" height="60" as="geometry"/>
                </mxCell>
                <mxCell id="22" value="&lt;span style=&quot;color: rgb(0 , 0 , 0)&quot;&gt;今日待办&lt;br&gt;&lt;/span&gt;" style="rounded=0;whiteSpace=wrap;html=1;fillColor=#FFFFFF;" vertex="1" parent="1">
                    <mxGeometry x="90" y="50" width="20" height="70" as="geometry"/>
                </mxCell>
                <mxCell id="24" value="最近完成:" style="rounded=0;whiteSpace=wrap;html=1;fillColor=#FFFFFF;fontColor=#000000;" vertex="1" parent="1">
                    <mxGeometry x="240" y="50" width="20" height="70" as="geometry"/>
                </mxCell>
                <mxCell id="25" value="上传:" style="rounded=0;whiteSpace=wrap;html=1;fillColor=#FFFFFF;fontColor=#000000;" vertex="1" parent="1">
                    <mxGeometry x="750" y="180" width="150" height="60" as="geometry"/>
                </mxCell>
                <mxCell id="26" value="显示按钮: 显示某一个 Project 到body区&amp;nbsp;" style="rounded=0;whiteSpace=wrap;html=1;fillColor=#FFFFFF;fontColor=#000000;" vertex="1" parent="1">
                    <mxGeometry x="590" y="110" width="150" height="60" as="geometry"/>
                </mxCell>
                <mxCell id="27" value="清除按钮:&amp;nbsp;" style="rounded=0;whiteSpace=wrap;html=1;fillColor=#FFFFFF;fontColor=#000000;" vertex="1" parent="1">
                    <mxGeometry x="590" y="180" width="150" height="60" as="geometry"/>
                </mxCell>
                <mxCell id="28" value="新建按钮: 召唤辅助页面进行信息填写&amp;nbsp;" style="rounded=0;whiteSpace=wrap;html=1;fillColor=#FFFFFF;fontColor=#000000;" vertex="1" parent="1">
                    <mxGeometry x="590" y="250" width="150" height="60" as="geometry"/>
                </mxCell>
                <mxCell id="29" value="修改按钮: 召唤辅助页面进行信息填写&lt;br&gt;&amp;nbsp;" style="rounded=0;whiteSpace=wrap;html=1;fillColor=#FFFFFF;fontColor=#000000;" vertex="1" parent="1">
                    <mxGeometry x="590" y="320" width="150" height="60" as="geometry"/>
                </mxCell>
                <mxCell id="30" value="下载:" style="rounded=0;whiteSpace=wrap;html=1;fillColor=#FFFFFF;fontColor=#000000;" vertex="1" parent="1">
                    <mxGeometry x="750" y="250" width="150" height="60" as="geometry"/>
                </mxCell>
                <mxCell id="31" value="支持折叠" style="rounded=0;whiteSpace=wrap;html=1;fillColor=#FFFFFF;fontColor=#000000;" vertex="1" parent="1">
                    <mxGeometry x="750" y="320" width="150" height="60" as="geometry"/>
                </mxCell>
                <mxCell id="32" value="info: 进行显示，允许完成直接删除，并引入最近完成&lt;br&gt;支持直接添加和删除" style="rounded=0;whiteSpace=wrap;html=1;fillColor=#FFFFFF;fontColor=#000000;" vertex="1" parent="1">
                    <mxGeometry x="430" y="390" width="150" height="60" as="geometry"/>
                </mxCell>
                <mxCell id="33" value="导入" style="rounded=0;whiteSpace=wrap;html=1;fillColor=#FFFFFF;fontColor=#000000;" vertex="1" parent="1">
                    <mxGeometry x="590" y="390" width="150" height="60" as="geometry"/>
                </mxCell>
                <mxCell id="34" value="导出" style="rounded=0;whiteSpace=wrap;html=1;fillColor=#FFFFFF;fontColor=#000000;" vertex="1" parent="1">
                    <mxGeometry x="750" y="390" width="150" height="60" as="geometry"/>
                </mxCell>
            </root>
        </mxGraphModel>
    </diagram>
</mxfile>